<mxfile host="app.diagrams.net" modified="2024-03-20T15:33:46.216Z" agent="Mozilla/5.0 (Windows NT 10.0; Win64; x64) AppleWebKit/537.36 (KHTML, like Gecko) Chrome/122.0.0.0 Safari/537.36" etag="uhLEFTaPF7IZsyo-1RmQ" version="23.1.5" type="device">
  <diagram id="C5RBs43oDa-KdzZeNtuy" name="Page-1">
    <mxGraphModel dx="1290" dy="541" grid="1" gridSize="10" guides="1" tooltips="1" connect="1" arrows="1" fold="1" page="1" pageScale="1" pageWidth="827" pageHeight="1169" math="0" shadow="0">
      <root>
        <mxCell id="WIyWlLk6GJQsqaUBKTNV-0" />
        <mxCell id="WIyWlLk6GJQsqaUBKTNV-1" parent="WIyWlLk6GJQsqaUBKTNV-0" />
        <mxCell id="ixnRtS7qp1EidhyOYbBK-55" value="" style="edgeStyle=orthogonalEdgeStyle;rounded=0;orthogonalLoop=1;jettySize=auto;html=1;" edge="1" parent="WIyWlLk6GJQsqaUBKTNV-1" source="ixnRtS7qp1EidhyOYbBK-50">
          <mxGeometry relative="1" as="geometry">
            <mxPoint x="400" y="720" as="targetPoint" />
            <Array as="points">
              <mxPoint x="580" y="650" />
              <mxPoint x="400" y="650" />
            </Array>
          </mxGeometry>
        </mxCell>
        <mxCell id="ixnRtS7qp1EidhyOYbBK-62" value="EVET" style="edgeLabel;html=1;align=center;verticalAlign=middle;resizable=0;points=[];" vertex="1" connectable="0" parent="ixnRtS7qp1EidhyOYbBK-55">
          <mxGeometry x="-0.2648" y="2" relative="1" as="geometry">
            <mxPoint as="offset" />
          </mxGeometry>
        </mxCell>
        <mxCell id="ixnRtS7qp1EidhyOYbBK-1" value="" style="edgeStyle=orthogonalEdgeStyle;rounded=0;orthogonalLoop=1;jettySize=auto;html=1;" edge="1" parent="WIyWlLk6GJQsqaUBKTNV-1" source="ixnRtS7qp1EidhyOYbBK-10">
          <mxGeometry relative="1" as="geometry">
            <mxPoint x="400" y="80" as="targetPoint" />
            <Array as="points">
              <mxPoint x="400" y="80" />
              <mxPoint x="400" y="80" />
            </Array>
          </mxGeometry>
        </mxCell>
        <mxCell id="ixnRtS7qp1EidhyOYbBK-0" value="BAŞLA" style="ellipse;whiteSpace=wrap;html=1;" vertex="1" parent="WIyWlLk6GJQsqaUBKTNV-1">
          <mxGeometry x="340" y="10" width="120" height="50" as="geometry" />
        </mxCell>
        <mxCell id="ixnRtS7qp1EidhyOYbBK-11" value="" style="edgeStyle=orthogonalEdgeStyle;rounded=0;orthogonalLoop=1;jettySize=auto;html=1;" edge="1" parent="WIyWlLk6GJQsqaUBKTNV-1" source="ixnRtS7qp1EidhyOYbBK-0" target="ixnRtS7qp1EidhyOYbBK-10">
          <mxGeometry relative="1" as="geometry">
            <mxPoint x="400" y="60" as="sourcePoint" />
            <mxPoint x="400" y="80" as="targetPoint" />
            <Array as="points" />
          </mxGeometry>
        </mxCell>
        <mxCell id="ixnRtS7qp1EidhyOYbBK-13" value="" style="edgeStyle=orthogonalEdgeStyle;rounded=0;orthogonalLoop=1;jettySize=auto;html=1;" edge="1" parent="WIyWlLk6GJQsqaUBKTNV-1" source="ixnRtS7qp1EidhyOYbBK-10" target="ixnRtS7qp1EidhyOYbBK-12">
          <mxGeometry relative="1" as="geometry" />
        </mxCell>
        <mxCell id="ixnRtS7qp1EidhyOYbBK-10" value="bir kelime türet" style="rounded=1;whiteSpace=wrap;html=1;" vertex="1" parent="WIyWlLk6GJQsqaUBKTNV-1">
          <mxGeometry x="340" y="80" width="120" height="20" as="geometry" />
        </mxCell>
        <mxCell id="ixnRtS7qp1EidhyOYbBK-15" value="" style="edgeStyle=orthogonalEdgeStyle;rounded=0;orthogonalLoop=1;jettySize=auto;html=1;" edge="1" parent="WIyWlLk6GJQsqaUBKTNV-1" source="ixnRtS7qp1EidhyOYbBK-12" target="ixnRtS7qp1EidhyOYbBK-14">
          <mxGeometry relative="1" as="geometry" />
        </mxCell>
        <mxCell id="ixnRtS7qp1EidhyOYbBK-12" value="" style="shape=waypoint;sketch=0;size=6;pointerEvents=1;points=[];fillColor=default;resizable=0;rotatable=0;perimeter=centerPerimeter;snapToPoint=1;rounded=1;" vertex="1" parent="WIyWlLk6GJQsqaUBKTNV-1">
          <mxGeometry x="390" y="110" width="20" height="20" as="geometry" />
        </mxCell>
        <mxCell id="ixnRtS7qp1EidhyOYbBK-27" value="" style="edgeStyle=orthogonalEdgeStyle;rounded=0;orthogonalLoop=1;jettySize=auto;html=1;" edge="1" parent="WIyWlLk6GJQsqaUBKTNV-1" source="ixnRtS7qp1EidhyOYbBK-14">
          <mxGeometry relative="1" as="geometry">
            <mxPoint x="400" y="180" as="targetPoint" />
          </mxGeometry>
        </mxCell>
        <mxCell id="ixnRtS7qp1EidhyOYbBK-30" value="" style="edgeStyle=orthogonalEdgeStyle;rounded=0;orthogonalLoop=1;jettySize=auto;html=1;" edge="1" parent="WIyWlLk6GJQsqaUBKTNV-1" source="ixnRtS7qp1EidhyOYbBK-14" target="ixnRtS7qp1EidhyOYbBK-29">
          <mxGeometry relative="1" as="geometry" />
        </mxCell>
        <mxCell id="ixnRtS7qp1EidhyOYbBK-14" value="kelimedeki harf sayısı kadar boşluk bırak" style="whiteSpace=wrap;html=1;sketch=0;pointerEvents=1;rounded=1;" vertex="1" parent="WIyWlLk6GJQsqaUBKTNV-1">
          <mxGeometry x="340" y="120" width="120" height="30" as="geometry" />
        </mxCell>
        <mxCell id="ixnRtS7qp1EidhyOYbBK-33" value="" style="edgeStyle=orthogonalEdgeStyle;rounded=0;orthogonalLoop=1;jettySize=auto;html=1;" edge="1" parent="WIyWlLk6GJQsqaUBKTNV-1" source="ixnRtS7qp1EidhyOYbBK-24" target="ixnRtS7qp1EidhyOYbBK-32">
          <mxGeometry relative="1" as="geometry" />
        </mxCell>
        <mxCell id="ixnRtS7qp1EidhyOYbBK-35" value="" style="edgeStyle=orthogonalEdgeStyle;rounded=0;orthogonalLoop=1;jettySize=auto;html=1;" edge="1" parent="WIyWlLk6GJQsqaUBKTNV-1" source="ixnRtS7qp1EidhyOYbBK-24" target="ixnRtS7qp1EidhyOYbBK-34">
          <mxGeometry relative="1" as="geometry" />
        </mxCell>
        <mxCell id="ixnRtS7qp1EidhyOYbBK-24" value="harf kelimede var mı?" style="rhombus;whiteSpace=wrap;html=1;sketch=0;pointerEvents=1;rounded=1;" vertex="1" parent="WIyWlLk6GJQsqaUBKTNV-1">
          <mxGeometry x="350" y="250" width="100" height="80" as="geometry" />
        </mxCell>
        <mxCell id="ixnRtS7qp1EidhyOYbBK-31" value="" style="edgeStyle=orthogonalEdgeStyle;rounded=0;orthogonalLoop=1;jettySize=auto;html=1;" edge="1" parent="WIyWlLk6GJQsqaUBKTNV-1" source="ixnRtS7qp1EidhyOYbBK-29" target="ixnRtS7qp1EidhyOYbBK-24">
          <mxGeometry relative="1" as="geometry" />
        </mxCell>
        <mxCell id="ixnRtS7qp1EidhyOYbBK-29" value="kullanıcıdan bir harf al." style="shape=parallelogram;perimeter=parallelogramPerimeter;whiteSpace=wrap;html=1;fixedSize=1;sketch=0;pointerEvents=1;rounded=1;" vertex="1" parent="WIyWlLk6GJQsqaUBKTNV-1">
          <mxGeometry x="330" y="180" width="140" height="40" as="geometry" />
        </mxCell>
        <mxCell id="ixnRtS7qp1EidhyOYbBK-37" value="" style="edgeStyle=orthogonalEdgeStyle;rounded=0;orthogonalLoop=1;jettySize=auto;html=1;" edge="1" parent="WIyWlLk6GJQsqaUBKTNV-1" source="ixnRtS7qp1EidhyOYbBK-32" target="ixnRtS7qp1EidhyOYbBK-36">
          <mxGeometry relative="1" as="geometry" />
        </mxCell>
        <mxCell id="ixnRtS7qp1EidhyOYbBK-74" value="HAYIR" style="edgeLabel;html=1;align=center;verticalAlign=middle;resizable=0;points=[];" vertex="1" connectable="0" parent="ixnRtS7qp1EidhyOYbBK-37">
          <mxGeometry x="-0.124" y="-2" relative="1" as="geometry">
            <mxPoint as="offset" />
          </mxGeometry>
        </mxCell>
        <mxCell id="ixnRtS7qp1EidhyOYbBK-32" value="" style="shape=waypoint;sketch=0;size=6;pointerEvents=1;points=[];fillColor=default;resizable=0;rotatable=0;perimeter=centerPerimeter;snapToPoint=1;rounded=1;" vertex="1" parent="WIyWlLk6GJQsqaUBKTNV-1">
          <mxGeometry x="570" y="280" width="20" height="20" as="geometry" />
        </mxCell>
        <mxCell id="ixnRtS7qp1EidhyOYbBK-39" value="" style="edgeStyle=orthogonalEdgeStyle;rounded=0;orthogonalLoop=1;jettySize=auto;html=1;" edge="1" parent="WIyWlLk6GJQsqaUBKTNV-1" source="ixnRtS7qp1EidhyOYbBK-34" target="ixnRtS7qp1EidhyOYbBK-38">
          <mxGeometry relative="1" as="geometry" />
        </mxCell>
        <mxCell id="ixnRtS7qp1EidhyOYbBK-73" value="EVET" style="edgeLabel;html=1;align=center;verticalAlign=middle;resizable=0;points=[];" vertex="1" connectable="0" parent="ixnRtS7qp1EidhyOYbBK-39">
          <mxGeometry x="-0.104" relative="1" as="geometry">
            <mxPoint as="offset" />
          </mxGeometry>
        </mxCell>
        <mxCell id="ixnRtS7qp1EidhyOYbBK-34" value="" style="shape=waypoint;sketch=0;size=6;pointerEvents=1;points=[];fillColor=default;resizable=0;rotatable=0;perimeter=centerPerimeter;snapToPoint=1;rounded=1;" vertex="1" parent="WIyWlLk6GJQsqaUBKTNV-1">
          <mxGeometry x="210" y="280" width="20" height="20" as="geometry" />
        </mxCell>
        <mxCell id="ixnRtS7qp1EidhyOYbBK-43" value="" style="edgeStyle=orthogonalEdgeStyle;rounded=0;orthogonalLoop=1;jettySize=auto;html=1;" edge="1" parent="WIyWlLk6GJQsqaUBKTNV-1" source="ixnRtS7qp1EidhyOYbBK-36" target="ixnRtS7qp1EidhyOYbBK-42">
          <mxGeometry relative="1" as="geometry" />
        </mxCell>
        <mxCell id="ixnRtS7qp1EidhyOYbBK-36" value="" style="shape=waypoint;sketch=0;size=6;pointerEvents=1;points=[];fillColor=default;resizable=0;rotatable=0;perimeter=centerPerimeter;snapToPoint=1;rounded=1;" vertex="1" parent="WIyWlLk6GJQsqaUBKTNV-1">
          <mxGeometry x="570" y="380" width="20" height="20" as="geometry" />
        </mxCell>
        <mxCell id="ixnRtS7qp1EidhyOYbBK-41" value="" style="edgeStyle=orthogonalEdgeStyle;rounded=0;orthogonalLoop=1;jettySize=auto;html=1;" edge="1" parent="WIyWlLk6GJQsqaUBKTNV-1" source="ixnRtS7qp1EidhyOYbBK-38" target="ixnRtS7qp1EidhyOYbBK-40">
          <mxGeometry relative="1" as="geometry" />
        </mxCell>
        <mxCell id="ixnRtS7qp1EidhyOYbBK-38" value="" style="shape=waypoint;sketch=0;size=6;pointerEvents=1;points=[];fillColor=default;resizable=0;rotatable=0;perimeter=centerPerimeter;snapToPoint=1;rounded=1;" vertex="1" parent="WIyWlLk6GJQsqaUBKTNV-1">
          <mxGeometry x="210" y="380" width="20" height="20" as="geometry" />
        </mxCell>
        <mxCell id="ixnRtS7qp1EidhyOYbBK-45" value="" style="edgeStyle=orthogonalEdgeStyle;rounded=0;orthogonalLoop=1;jettySize=auto;html=1;" edge="1" parent="WIyWlLk6GJQsqaUBKTNV-1" source="ixnRtS7qp1EidhyOYbBK-40" target="ixnRtS7qp1EidhyOYbBK-44">
          <mxGeometry relative="1" as="geometry" />
        </mxCell>
        <mxCell id="ixnRtS7qp1EidhyOYbBK-40" value="boşluğu harfle doldur." style="whiteSpace=wrap;html=1;sketch=0;pointerEvents=1;rounded=1;" vertex="1" parent="WIyWlLk6GJQsqaUBKTNV-1">
          <mxGeometry x="160" y="390" width="120" height="40" as="geometry" />
        </mxCell>
        <mxCell id="ixnRtS7qp1EidhyOYbBK-49" value="" style="edgeStyle=orthogonalEdgeStyle;rounded=0;orthogonalLoop=1;jettySize=auto;html=1;" edge="1" parent="WIyWlLk6GJQsqaUBKTNV-1" source="ixnRtS7qp1EidhyOYbBK-42" target="ixnRtS7qp1EidhyOYbBK-48">
          <mxGeometry relative="1" as="geometry" />
        </mxCell>
        <mxCell id="ixnRtS7qp1EidhyOYbBK-42" value="bir can kaybet" style="whiteSpace=wrap;html=1;sketch=0;pointerEvents=1;rounded=1;" vertex="1" parent="WIyWlLk6GJQsqaUBKTNV-1">
          <mxGeometry x="520" y="390" width="120" height="40" as="geometry" />
        </mxCell>
        <mxCell id="ixnRtS7qp1EidhyOYbBK-47" value="" style="edgeStyle=orthogonalEdgeStyle;rounded=0;orthogonalLoop=1;jettySize=auto;html=1;" edge="1" parent="WIyWlLk6GJQsqaUBKTNV-1" source="ixnRtS7qp1EidhyOYbBK-44" target="ixnRtS7qp1EidhyOYbBK-46">
          <mxGeometry relative="1" as="geometry" />
        </mxCell>
        <mxCell id="ixnRtS7qp1EidhyOYbBK-44" value="" style="shape=waypoint;sketch=0;size=6;pointerEvents=1;points=[];fillColor=default;resizable=0;rotatable=0;perimeter=centerPerimeter;snapToPoint=1;rounded=1;" vertex="1" parent="WIyWlLk6GJQsqaUBKTNV-1">
          <mxGeometry x="210" y="520" width="20" height="20" as="geometry" />
        </mxCell>
        <mxCell id="ixnRtS7qp1EidhyOYbBK-53" value="" style="edgeStyle=orthogonalEdgeStyle;rounded=0;orthogonalLoop=1;jettySize=auto;html=1;" edge="1" parent="WIyWlLk6GJQsqaUBKTNV-1" target="ixnRtS7qp1EidhyOYbBK-59">
          <mxGeometry relative="1" as="geometry">
            <mxPoint x="220" y="610" as="sourcePoint" />
            <mxPoint x="400" y="720" as="targetPoint" />
            <Array as="points">
              <mxPoint x="220" y="650" />
              <mxPoint x="400" y="650" />
            </Array>
          </mxGeometry>
        </mxCell>
        <mxCell id="ixnRtS7qp1EidhyOYbBK-61" value="EVET" style="edgeLabel;html=1;align=center;verticalAlign=middle;resizable=0;points=[];" vertex="1" connectable="0" parent="ixnRtS7qp1EidhyOYbBK-53">
          <mxGeometry x="-0.3114" y="-1" relative="1" as="geometry">
            <mxPoint as="offset" />
          </mxGeometry>
        </mxCell>
        <mxCell id="ixnRtS7qp1EidhyOYbBK-68" value="" style="edgeStyle=orthogonalEdgeStyle;rounded=0;orthogonalLoop=1;jettySize=auto;html=1;" edge="1" parent="WIyWlLk6GJQsqaUBKTNV-1" source="ixnRtS7qp1EidhyOYbBK-46" target="ixnRtS7qp1EidhyOYbBK-67">
          <mxGeometry relative="1" as="geometry" />
        </mxCell>
        <mxCell id="ixnRtS7qp1EidhyOYbBK-71" value="HAYIR" style="edgeLabel;html=1;align=center;verticalAlign=middle;resizable=0;points=[];" vertex="1" connectable="0" parent="ixnRtS7qp1EidhyOYbBK-68">
          <mxGeometry x="0.3048" relative="1" as="geometry">
            <mxPoint as="offset" />
          </mxGeometry>
        </mxCell>
        <mxCell id="ixnRtS7qp1EidhyOYbBK-46" value="bütün boşluklar bitti mi?" style="rhombus;whiteSpace=wrap;html=1;sketch=0;pointerEvents=1;rounded=1;" vertex="1" parent="WIyWlLk6GJQsqaUBKTNV-1">
          <mxGeometry x="170" y="530" width="100" height="80" as="geometry" />
        </mxCell>
        <mxCell id="ixnRtS7qp1EidhyOYbBK-51" value="" style="edgeStyle=orthogonalEdgeStyle;rounded=0;orthogonalLoop=1;jettySize=auto;html=1;" edge="1" parent="WIyWlLk6GJQsqaUBKTNV-1" source="ixnRtS7qp1EidhyOYbBK-48" target="ixnRtS7qp1EidhyOYbBK-50">
          <mxGeometry relative="1" as="geometry" />
        </mxCell>
        <mxCell id="ixnRtS7qp1EidhyOYbBK-48" value="" style="shape=waypoint;sketch=0;size=6;pointerEvents=1;points=[];fillColor=default;resizable=0;rotatable=0;perimeter=centerPerimeter;snapToPoint=1;rounded=1;" vertex="1" parent="WIyWlLk6GJQsqaUBKTNV-1">
          <mxGeometry x="570" y="520" width="20" height="20" as="geometry" />
        </mxCell>
        <mxCell id="ixnRtS7qp1EidhyOYbBK-64" value="" style="edgeStyle=orthogonalEdgeStyle;rounded=0;orthogonalLoop=1;jettySize=auto;html=1;" edge="1" parent="WIyWlLk6GJQsqaUBKTNV-1" source="ixnRtS7qp1EidhyOYbBK-50" target="ixnRtS7qp1EidhyOYbBK-63">
          <mxGeometry relative="1" as="geometry" />
        </mxCell>
        <mxCell id="ixnRtS7qp1EidhyOYbBK-72" value="HAYIR" style="edgeLabel;html=1;align=center;verticalAlign=middle;resizable=0;points=[];" vertex="1" connectable="0" parent="ixnRtS7qp1EidhyOYbBK-64">
          <mxGeometry x="0.2574" y="1" relative="1" as="geometry">
            <mxPoint as="offset" />
          </mxGeometry>
        </mxCell>
        <mxCell id="ixnRtS7qp1EidhyOYbBK-50" value="canlar bitti mi?" style="rhombus;whiteSpace=wrap;html=1;sketch=0;pointerEvents=1;rounded=1;" vertex="1" parent="WIyWlLk6GJQsqaUBKTNV-1">
          <mxGeometry x="530" y="530" width="100" height="80" as="geometry" />
        </mxCell>
        <mxCell id="ixnRtS7qp1EidhyOYbBK-56" style="edgeStyle=orthogonalEdgeStyle;rounded=0;orthogonalLoop=1;jettySize=auto;html=1;entryX=0.88;entryY=0.67;entryDx=0;entryDy=0;entryPerimeter=0;" edge="1" parent="WIyWlLk6GJQsqaUBKTNV-1">
          <mxGeometry relative="1" as="geometry">
            <mxPoint x="580" y="730" as="sourcePoint" />
            <mxPoint x="580" y="730" as="targetPoint" />
          </mxGeometry>
        </mxCell>
        <mxCell id="ixnRtS7qp1EidhyOYbBK-59" value="BİTTİ" style="ellipse;whiteSpace=wrap;html=1;" vertex="1" parent="WIyWlLk6GJQsqaUBKTNV-1">
          <mxGeometry x="340" y="710" width="120" height="50" as="geometry" />
        </mxCell>
        <mxCell id="ixnRtS7qp1EidhyOYbBK-60" style="edgeStyle=orthogonalEdgeStyle;rounded=0;orthogonalLoop=1;jettySize=auto;html=1;exitX=0.5;exitY=1;exitDx=0;exitDy=0;" edge="1" parent="WIyWlLk6GJQsqaUBKTNV-1" source="ixnRtS7qp1EidhyOYbBK-59" target="ixnRtS7qp1EidhyOYbBK-59">
          <mxGeometry relative="1" as="geometry" />
        </mxCell>
        <mxCell id="ixnRtS7qp1EidhyOYbBK-66" value="" style="edgeStyle=orthogonalEdgeStyle;rounded=0;orthogonalLoop=1;jettySize=auto;html=1;" edge="1" parent="WIyWlLk6GJQsqaUBKTNV-1" source="ixnRtS7qp1EidhyOYbBK-63" target="ixnRtS7qp1EidhyOYbBK-65">
          <mxGeometry relative="1" as="geometry" />
        </mxCell>
        <mxCell id="ixnRtS7qp1EidhyOYbBK-63" value="" style="shape=waypoint;sketch=0;size=6;pointerEvents=1;points=[];fillColor=default;resizable=0;rotatable=0;perimeter=centerPerimeter;snapToPoint=1;rounded=1;" vertex="1" parent="WIyWlLk6GJQsqaUBKTNV-1">
          <mxGeometry x="710" y="190" width="20" height="20" as="geometry" />
        </mxCell>
        <mxCell id="ixnRtS7qp1EidhyOYbBK-65" value="" style="shape=waypoint;sketch=0;size=6;pointerEvents=1;points=[];fillColor=default;resizable=0;rotatable=0;perimeter=centerPerimeter;snapToPoint=1;rounded=1;" vertex="1" parent="WIyWlLk6GJQsqaUBKTNV-1">
          <mxGeometry x="450" y="190" width="20" height="20" as="geometry" />
        </mxCell>
        <mxCell id="ixnRtS7qp1EidhyOYbBK-70" value="" style="edgeStyle=orthogonalEdgeStyle;rounded=0;orthogonalLoop=1;jettySize=auto;html=1;" edge="1" parent="WIyWlLk6GJQsqaUBKTNV-1" source="ixnRtS7qp1EidhyOYbBK-67" target="ixnRtS7qp1EidhyOYbBK-69">
          <mxGeometry relative="1" as="geometry" />
        </mxCell>
        <mxCell id="ixnRtS7qp1EidhyOYbBK-67" value="" style="shape=waypoint;sketch=0;size=6;pointerEvents=1;points=[];fillColor=default;resizable=0;rotatable=0;perimeter=centerPerimeter;snapToPoint=1;rounded=1;" vertex="1" parent="WIyWlLk6GJQsqaUBKTNV-1">
          <mxGeometry x="30" y="190" width="20" height="20" as="geometry" />
        </mxCell>
        <mxCell id="ixnRtS7qp1EidhyOYbBK-69" value="" style="shape=waypoint;sketch=0;size=6;pointerEvents=1;points=[];fillColor=default;resizable=0;rotatable=0;perimeter=centerPerimeter;snapToPoint=1;rounded=1;" vertex="1" parent="WIyWlLk6GJQsqaUBKTNV-1">
          <mxGeometry x="320" y="190" width="20" height="20" as="geometry" />
        </mxCell>
      </root>
    </mxGraphModel>
  </diagram>
</mxfile>
